<svg width="42" height="42" viewBox="0 0 42 42" fill="none" xmlns="http://www.w3.org/2000/svg">
<path d="M8.50002 33.5001H33.5V8.50008H8.50002V33.5001ZM25.1667 37.6667H16.8334V41.8334H12.6667V37.6667H6.41669C5.86415 37.6667 5.33425 37.4473 4.94355 37.0566C4.55285 36.6659 4.33335 36.1359 4.33335 35.5834V29.3334H0.166687V25.1667H4.33335V16.8334H0.166687V12.6667H4.33335V6.41675C4.33335 5.86421 4.55285 5.33431 4.94355 4.94361C5.33425 4.55291 5.86415 4.33341 6.41669 4.33341H12.6667V0.166748H16.8334V4.33341H25.1667V0.166748H29.3334V4.33341H35.5834C36.1359 4.33341 36.6658 4.55291 37.0565 4.94361C37.4472 5.33431 37.6667 5.86421 37.6667 6.41675V12.6667H41.8334V16.8334H37.6667V25.1667H41.8334V29.3334H37.6667V35.5834C37.6667 36.1359 37.4472 36.6659 37.0565 37.0566C36.6658 37.4473 36.1359 37.6667 35.5834 37.6667H29.3334V41.8334H25.1667V37.6667ZM12.6667 12.6667H29.3334V29.3334H12.6667V12.6667Z" fill="#004A41"/>
</svg>
