<svg width="483" height="503" viewBox="0 0 483 503" fill="none" xmlns="http://www.w3.org/2000/svg">
<path d="M14.15 182.27C15.85 206.2 23.84 272.61 75.53 330.15C115.65 374.82 162.13 391.89 181.62 398.78C198.94 404.91 236.19 417.66 285.77 413.85C342.51 409.49 384.18 385.85 406.41 370.3C438.297 347.928 464.469 318.364 482.81 284C478.44 314.89 460.63 412.67 381.31 465.12C360.73 478.73 341.76 485.49 331.65 489.02C240.23 520.95 159.45 489.02 145.92 483.39C124.63 474.59 74.27 453 38.04 400.39C-26.09 307.35 9.14 197.13 14.15 182.27Z" fill="#002924"/>
<path d="M380.81 12.35C363.81 24.14 308.04 65.85 290.41 139.61C283.755 165.937 282.753 193.375 287.471 220.118C292.188 246.86 302.518 272.299 317.78 294.76C307.47 294.71 245.92 293.38 200.43 243.14C190.79 232.48 151.77 186.39 160.99 123.07C167.99 75.07 198.5 45.78 208.1 37.29C252.22 -1.69 318.69 -10.3 380.81 12.35Z" fill="#002924"/>
<path d="M181.58 30C173.92 38 113.79 103.22 128.87 187.68C137.17 234.16 164.43 265.12 172.8 274.39C205.34 310.39 242.67 323.07 257.12 327.75C313.3 345.98 361.83 334.29 381.26 328.43C369.57 337.2 299.93 387.69 212.32 369.13C198.78 366.26 153.74 356.08 114.82 316.32C105 306.27 77.27 277.2 66.87 229.77C64.5 219 50.93 151.64 95.15 91.4C125.23 50.42 165.63 35.1 181.58 30Z" fill="#002924"/>
</svg>
