<svg width="50" height="50" viewBox="0 0 50 50" fill="none" xmlns="http://www.w3.org/2000/svg">
<g clip-path="url(#clip0_72_24)">
<path d="M20.9917 22.9165C22.2417 22.9165 23.2542 23.854 23.2312 24.9998C23.2312 26.1457 22.2437 27.0832 20.9917 27.0832C19.7625 27.0832 18.75 26.1457 18.75 24.9998C18.75 23.854 19.7396 22.9165 20.9917 22.9165ZM29.0083 22.9165C30.2604 22.9165 31.25 23.854 31.25 24.9998C31.25 26.1457 30.2604 27.0832 29.0083 27.0832C27.7792 27.0832 26.7687 26.1457 26.7687 24.9998C26.7687 23.854 27.7562 22.9165 29.0083 22.9165ZM39.3563 4.1665C41.7792 4.1665 43.75 6.179 43.75 8.67275V47.9165L39.1437 43.7603L36.55 41.3103L33.8062 38.7061L34.9438 42.754H10.6438C8.22083 42.754 6.25 40.7415 6.25 38.2477V8.67275C6.25 6.179 8.22083 4.1665 10.6438 4.1665H39.3542H39.3563ZM31.0854 32.7353C35.8208 32.5832 37.6437 29.4103 37.6437 29.4103C37.6437 22.3665 34.5562 16.6561 34.5562 16.6561C31.4729 14.2957 28.5354 14.3603 28.5354 14.3603L28.2354 14.7103C31.8792 15.8478 33.5708 17.4894 33.5708 17.4894C31.5814 16.3686 29.3888 15.6547 27.1208 15.3894C25.6822 15.2269 24.229 15.2409 22.7937 15.4311C22.6646 15.4311 22.5562 15.454 22.4292 15.4748C21.6792 15.5415 19.8562 15.8248 17.5646 16.854C16.7729 17.2248 16.3 17.4894 16.3 17.4894C16.3 17.4894 18.0792 15.7603 21.9354 14.6228L21.7208 14.3603C21.7208 14.3603 18.7854 14.2957 15.7 16.6582C15.7 16.6582 12.6146 22.3665 12.6146 29.4103C12.6146 29.4103 14.4146 32.5811 19.15 32.7353C19.15 32.7353 19.9417 31.7519 20.5875 30.9207C17.8646 30.0873 16.8375 28.3373 16.8375 28.3373C16.8375 28.3373 17.05 28.4915 17.4354 28.7103C17.4563 28.7311 17.4771 28.754 17.5208 28.7748C17.5854 28.8207 17.65 28.8415 17.7146 28.8853C18.25 29.1915 18.7854 29.4311 19.2771 29.629C20.1562 29.979 21.2062 30.329 22.4292 30.5707C24.2611 30.9298 26.1446 30.9368 27.9792 30.5915C29.0477 30.4008 30.0903 30.0854 31.0854 29.6519C31.8354 29.3665 32.6708 28.9498 33.55 28.3603C33.55 28.3603 32.4792 30.154 29.6708 30.9644C30.3146 31.7957 31.0875 32.7353 31.0875 32.7353H31.0854Z" fill="#00FFE0"/>
</g>
<defs>
<clipPath id="clip0_72_24">
<rect width="50" height="50" fill="white"/>
</clipPath>
</defs>
</svg>
