<svg width="50" height="50" viewBox="0 0 50 50" fill="none" xmlns="http://www.w3.org/2000/svg">
<g clip-path="url(#clip0_72_36)">
<path d="M46.1708 11.7834C44.5803 12.487 42.8937 12.949 41.1667 13.1543C42.987 12.0656 44.3494 10.3522 45 8.33342C43.2917 9.35009 41.4187 10.0626 39.4667 10.448C38.1554 9.04505 36.4174 8.1146 34.5228 7.80131C32.6282 7.48802 30.6832 7.80945 28.9901 8.71562C27.2971 9.62179 25.9508 11.0619 25.1606 12.8122C24.3705 14.5624 24.1807 16.5246 24.6208 18.3938C21.1565 18.2202 17.7673 17.3199 14.6735 15.7515C11.5797 14.183 8.85025 11.9814 6.66249 9.28967C5.88809 10.6198 5.48114 12.1318 5.48332 13.6709C5.48332 16.6918 7.02082 19.3605 9.35832 20.923C7.97501 20.8795 6.62214 20.5059 5.41249 19.8334V19.9418C5.41291 21.9536 6.10909 23.9035 7.383 25.4606C8.65692 27.0178 10.4302 28.0865 12.4021 28.4855C11.1179 28.8335 9.77146 28.8848 8.46457 28.6355C9.02054 30.3672 10.1042 31.8818 11.5637 32.967C13.0233 34.0522 14.7857 34.6538 16.6042 34.6876C14.7968 36.107 12.7274 37.1563 10.5143 37.7755C8.3012 38.3946 5.98775 38.5715 3.70624 38.2959C7.68894 40.8572 12.3252 42.217 17.0604 42.2126C33.0875 42.2126 41.8521 28.9355 41.8521 17.4209C41.8521 17.0459 41.8417 16.6668 41.825 16.2959C43.531 15.0629 45.0033 13.5355 46.1729 11.7855L46.1708 11.7834Z" fill="#00FFE0"/>
</g>
<defs>
<clipPath id="clip0_72_36">
<rect width="50" height="50" fill="white"/>
</clipPath>
</defs>
</svg>
