<svg width="50" height="50" viewBox="0 0 50 50" fill="none" xmlns="http://www.w3.org/2000/svg">
<g clip-path="url(#clip0_72_39)">
<path d="M44.8813 13.5377C45.8334 17.2502 45.8334 25.0002 45.8334 25.0002C45.8334 25.0002 45.8334 32.7502 44.8813 36.4627C44.3521 38.5147 42.8042 40.1293 40.8438 40.6752C37.2834 41.6668 25 41.6668 25 41.6668C25 41.6668 12.7229 41.6668 9.15627 40.6752C7.18752 40.121 5.64169 38.5085 5.11877 36.4627C4.16669 32.7502 4.16669 25.0002 4.16669 25.0002C4.16669 25.0002 4.16669 17.2502 5.11877 13.5377C5.64794 11.4856 7.19585 9.871 9.15627 9.32516C12.7229 8.3335 25 8.3335 25 8.3335C25 8.3335 37.2834 8.3335 40.8438 9.32516C42.8125 9.87933 44.3584 11.4918 44.8813 13.5377ZM20.8334 32.2918L33.3334 25.0002L20.8334 17.7085V32.2918Z" fill="#00FFE0"/>
</g>
<defs>
<clipPath id="clip0_72_39">
<rect width="50" height="50" fill="white"/>
</clipPath>
</defs>
</svg>
