<svg width="50" height="50" viewBox="0 0 50 50" fill="none" xmlns="http://www.w3.org/2000/svg">
<g clip-path="url(#clip0_72_33)">
<path d="M25 4.1665C30.6604 4.1665 31.3667 4.18734 33.5875 4.2915C35.8063 4.39567 37.3167 4.74359 38.6459 5.26025C40.0209 5.78942 41.1792 6.50609 42.3375 7.66234C43.3969 8.70379 44.2166 9.96356 44.7396 11.354C45.2542 12.6811 45.6042 14.1936 45.7084 16.4123C45.8063 18.6332 45.8334 19.3394 45.8334 24.9998C45.8334 30.6603 45.8125 31.3665 45.7084 33.5873C45.6042 35.8061 45.2542 37.3165 44.7396 38.6457C44.2181 40.0369 43.3982 41.297 42.3375 42.3373C41.2958 43.3963 40.0361 44.216 38.6459 44.7394C37.3188 45.254 35.8063 45.604 33.5875 45.7082C31.3667 45.8061 30.6604 45.8332 25 45.8332C19.3396 45.8332 18.6334 45.8123 16.4125 45.7082C14.1938 45.604 12.6834 45.254 11.3542 44.7394C9.9632 44.2175 8.7032 43.3976 7.66252 42.3373C6.60295 41.2961 5.78321 40.0362 5.26044 38.6457C4.74377 37.3186 4.39585 35.8061 4.29169 33.5873C4.19377 31.3665 4.16669 30.6603 4.16669 24.9998C4.16669 19.3394 4.18752 18.6332 4.29169 16.4123C4.39585 14.1915 4.74377 12.6832 5.26044 11.354C5.78176 9.96271 6.60169 8.70259 7.66252 7.66234C8.7035 6.6024 9.96341 5.78261 11.3542 5.26025C12.6834 4.74359 14.1917 4.39567 16.4125 4.2915C18.6334 4.19359 19.3396 4.1665 25 4.1665ZM25 14.5832C22.2374 14.5832 19.5878 15.6806 17.6343 17.6341C15.6808 19.5876 14.5834 22.2372 14.5834 24.9998C14.5834 27.7625 15.6808 30.412 17.6343 32.3655C19.5878 34.319 22.2374 35.4165 25 35.4165C27.7627 35.4165 30.4122 34.319 32.3657 32.3655C34.3192 30.412 35.4167 27.7625 35.4167 24.9998C35.4167 22.2372 34.3192 19.5876 32.3657 17.6341C30.4122 15.6806 27.7627 14.5832 25 14.5832ZM38.5417 14.0623C38.5417 13.3717 38.2673 12.7093 37.7789 12.2209C37.2906 11.7325 36.6282 11.4582 35.9375 11.4582C35.2469 11.4582 34.5845 11.7325 34.0961 12.2209C33.6077 12.7093 33.3334 13.3717 33.3334 14.0623C33.3334 14.753 33.6077 15.4154 34.0961 15.9038C34.5845 16.3921 35.2469 16.6665 35.9375 16.6665C36.6282 16.6665 37.2906 16.3921 37.7789 15.9038C38.2673 15.4154 38.5417 14.753 38.5417 14.0623ZM25 18.7498C26.6576 18.7498 28.2473 19.4083 29.4194 20.5804C30.5915 21.7525 31.25 23.3422 31.25 24.9998C31.25 26.6574 30.5915 28.2472 29.4194 29.4193C28.2473 30.5914 26.6576 31.2498 25 31.2498C23.3424 31.2498 21.7527 30.5914 20.5806 29.4193C19.4085 28.2472 18.75 26.6574 18.75 24.9998C18.75 23.3422 19.4085 21.7525 20.5806 20.5804C21.7527 19.4083 23.3424 18.7498 25 18.7498Z" fill="#00FFE0"/>
</g>
<defs>
<clipPath id="clip0_72_33">
<rect width="50" height="50" fill="white"/>
</clipPath>
</defs>
</svg>
