<svg width="50" height="50" viewBox="0 0 50 50" fill="none" xmlns="http://www.w3.org/2000/svg">
<g clip-path="url(#clip0_72_42)">
<path d="M25 4.1665C13.4896 4.1665 4.16669 13.4894 4.16669 24.9998C4.16433 29.3733 5.53922 33.6365 8.09631 37.1846C10.6534 40.7326 14.2628 43.3854 18.4125 44.7665C19.4542 44.9478 19.8438 44.3228 19.8438 43.7748C19.8438 43.2811 19.8167 41.6415 19.8167 39.8957C14.5834 40.8603 13.2292 38.6207 12.8125 37.4478C12.5771 36.8478 11.5625 34.9998 10.6771 34.504C9.94794 34.1144 8.90627 33.1498 10.65 33.1248C12.2917 33.0978 13.4625 34.6353 13.8542 35.2603C15.7292 38.4103 18.725 37.5248 19.9209 36.979C20.1042 35.6248 20.65 34.7144 21.25 34.1936C16.6146 33.6728 11.7709 31.8748 11.7709 23.9061C11.7709 21.6394 12.5771 19.7665 13.9063 18.3061C13.6979 17.7853 12.9688 15.6498 14.1146 12.7853C14.1146 12.7853 15.8584 12.2394 19.8438 14.9228C21.5397 14.452 23.292 14.2151 25.0521 14.2186C26.8229 14.2186 28.5938 14.4519 30.2604 14.9207C34.2438 12.2123 35.9896 12.7873 35.9896 12.7873C37.1354 15.6519 36.4063 17.7873 36.1979 18.3082C37.525 19.7665 38.3334 21.6144 38.3334 23.9061C38.3334 31.9019 33.4646 33.6728 28.8292 34.1936C29.5834 34.8436 30.2354 36.0936 30.2354 38.0478C30.2354 40.8332 30.2084 43.0728 30.2084 43.7769C30.2084 44.3228 30.6 44.9728 31.6417 44.7644C35.7772 43.3682 39.3707 40.7102 41.9165 37.1647C44.4623 33.6192 45.8322 29.3647 45.8334 24.9998C45.8334 13.4894 36.5104 4.1665 25 4.1665Z" fill="#00FFE0"/>
</g>
<defs>
<clipPath id="clip0_72_42">
<rect width="50" height="50" fill="white"/>
</clipPath>
</defs>
</svg>
