<svg width="28" height="33" viewBox="0 0 28 33" fill="none" xmlns="http://www.w3.org/2000/svg">
<path d="M10.968 14.3406C11.8593 14.3406 12.5813 15.0091 12.5649 15.8261C12.5649 16.6431 11.8608 17.3116 10.968 17.3116C10.0915 17.3116 9.36959 16.6431 9.36959 15.8261C9.36959 15.0091 10.0752 14.3406 10.968 14.3406ZM16.6842 14.3406C17.577 14.3406 18.2826 15.0091 18.2826 15.8261C18.2826 16.6431 17.577 17.3116 16.6842 17.3116C15.8078 17.3116 15.0873 16.6431 15.0873 15.8261C15.0873 15.0091 15.7914 14.3406 16.6842 14.3406ZM24.0627 0.971008C25.7904 0.971008 27.1957 2.40601 27.1957 4.18416V32.1667L23.9112 29.2031L22.0618 27.4561L20.1053 25.5992L20.9164 28.4856H3.58948C1.86183 28.4856 0.456543 27.0506 0.456543 25.2724V4.18416C0.456543 2.40601 1.86183 0.971008 3.58948 0.971008H24.0613H24.0627ZM18.1653 21.3418C21.5418 21.2333 22.8417 18.9709 22.8417 18.9709C22.8417 13.9484 20.6401 9.87662 20.6401 9.87662C18.4416 8.19354 16.347 8.2396 16.347 8.2396L16.1331 8.48916C18.7313 9.30025 19.9375 10.4708 19.9375 10.4708C18.5189 9.67161 16.9555 9.1626 15.3384 8.97344C14.3125 8.85757 13.2764 8.86755 12.253 9.00315C12.1609 9.00315 12.0836 9.01949 11.993 9.03434C11.4582 9.08188 10.1584 9.28391 8.52433 10.0177C7.95984 10.2822 7.62263 10.4708 7.62263 10.4708C7.62263 10.4708 8.89125 9.23786 11.6409 8.42677L11.4879 8.2396C11.4879 8.2396 9.39484 8.19354 7.1948 9.87811C7.1948 9.87811 4.99477 13.9484 4.99477 18.9709C4.99477 18.9709 6.27825 21.2318 9.6548 21.3418C9.6548 21.3418 10.2193 20.6406 10.6798 20.0479C8.73825 19.4537 8.00589 18.2059 8.00589 18.2059C8.00589 18.2059 8.15741 18.3158 8.43223 18.4718C8.44709 18.4866 8.46194 18.503 8.49314 18.5178C8.53919 18.5505 8.58524 18.5654 8.63129 18.5966C9.01307 18.8149 9.39484 18.9858 9.74542 19.1269C10.3723 19.3764 11.121 19.626 11.993 19.7983C13.2992 20.0544 14.6423 20.0594 15.9504 19.8132C16.7123 19.6772 17.4557 19.4523 18.1653 19.1432C18.7001 18.9397 19.2957 18.6426 19.9226 18.2222C19.9226 18.2222 19.1591 19.5012 17.1566 20.0791C17.6156 20.6718 18.1668 21.3418 18.1668 21.3418H18.1653Z" fill="white"/>
</svg>
