<svg width="38" height="44" viewBox="0 0 38 44" fill="none" xmlns="http://www.w3.org/2000/svg">
<path d="M14.9917 18.9167C16.2417 18.9167 17.2542 19.8542 17.2312 21.0001C17.2312 22.1459 16.2437 23.0834 14.9917 23.0834C13.7625 23.0834 12.75 22.1459 12.75 21.0001C12.75 19.8542 13.7396 18.9167 14.9917 18.9167ZM23.0083 18.9167C24.2604 18.9167 25.25 19.8542 25.25 21.0001C25.25 22.1459 24.2604 23.0834 23.0083 23.0834C21.7792 23.0834 20.7687 22.1459 20.7687 21.0001C20.7687 19.8542 21.7562 18.9167 23.0083 18.9167ZM33.3563 0.166748C35.7792 0.166748 37.75 2.17925 37.75 4.673V43.9167L33.1437 39.7605L30.55 37.3105L27.8062 34.7063L28.9438 38.7542H4.64375C2.22083 38.7542 0.25 36.7417 0.25 34.248V4.673C0.25 2.17925 2.22083 0.166748 4.64375 0.166748H33.3542H33.3563ZM25.0854 28.7355C29.8208 28.5834 31.6437 25.4105 31.6437 25.4105C31.6437 18.3667 28.5562 12.6563 28.5562 12.6563C25.4729 10.2959 22.5354 10.3605 22.5354 10.3605L22.2354 10.7105C25.8792 11.848 27.5708 13.4897 27.5708 13.4897C25.5814 12.3688 23.3888 11.655 21.1208 11.3897C19.6822 11.2272 18.229 11.2412 16.7937 11.4313C16.6646 11.4313 16.5562 11.4542 16.4292 11.4751C15.6792 11.5417 13.8562 11.8251 11.5646 12.8542C10.7729 13.2251 10.3 13.4897 10.3 13.4897C10.3 13.4897 12.0792 11.7605 15.9354 10.623L15.7208 10.3605C15.7208 10.3605 12.7854 10.2959 9.7 12.6584C9.7 12.6584 6.61458 18.3667 6.61458 25.4105C6.61458 25.4105 8.41458 28.5813 13.15 28.7355C13.15 28.7355 13.9417 27.7522 14.5875 26.9209C11.8646 26.0876 10.8375 24.3376 10.8375 24.3376C10.8375 24.3376 11.05 24.4917 11.4354 24.7105C11.4563 24.7313 11.4771 24.7542 11.5208 24.7751C11.5854 24.8209 11.65 24.8417 11.7146 24.8855C12.25 25.1917 12.7854 25.4313 13.2771 25.6292C14.1562 25.9792 15.2062 26.3292 16.4292 26.5709C18.2611 26.93 20.1446 26.9371 21.9792 26.5917C23.0477 26.401 24.0903 26.0857 25.0854 25.6522C25.8354 25.3667 26.6708 24.9501 27.55 24.3605C27.55 24.3605 26.4792 26.1542 23.6708 26.9647C24.3146 27.7959 25.0875 28.7355 25.0875 28.7355H25.0854Z" fill="#004A41"/>
</svg>
