<svg width="30" height="30" viewBox="0 0 30 30" fill="none" xmlns="http://www.w3.org/2000/svg">
<path d="M15 0.971008C6.79261 0.971008 0.144961 7.61865 0.144961 15.8261C0.143276 18.9446 1.12363 21.9844 2.94695 24.5143C4.77026 27.0443 7.34394 28.9358 10.3029 29.9206C11.0456 30.0498 11.3234 29.6042 11.3234 29.2135C11.3234 28.8614 11.3041 27.6923 11.3041 26.4475C7.5725 27.1352 6.60692 25.5383 6.30982 24.702C6.14195 24.2742 5.41851 22.9565 4.78717 22.603C4.26724 22.3252 3.52449 21.6374 4.76786 21.6196C5.93844 21.6002 6.77329 22.6966 7.05257 23.1422C8.38953 25.3883 10.5257 24.757 11.3784 24.3677C11.5091 23.4022 11.8983 22.753 12.3261 22.3816C9.02087 22.0102 5.56706 20.7283 5.56706 15.0462C5.56706 13.43 6.14195 12.0945 7.08971 11.0531C6.94116 10.6818 6.42123 9.15912 7.23826 7.11655C7.23826 7.11655 8.48163 6.72735 11.3234 8.64068C12.5327 8.30505 13.7822 8.13612 15.0372 8.13858C16.2999 8.13858 17.5625 8.30496 18.7509 8.6392C21.5912 6.70804 22.8361 7.11804 22.8361 7.11804C23.6531 9.16061 23.1332 10.6833 22.9846 11.0546C23.9309 12.0945 24.5073 13.4121 24.5073 15.0462C24.5073 20.7476 21.0357 22.0102 17.7304 22.3816C18.2682 22.8451 18.7331 23.7364 18.7331 25.1298C18.7331 27.1159 18.7138 28.7129 18.7138 29.215C18.7138 29.6042 18.9931 30.0676 19.7358 29.9191C22.6846 28.9235 25.2469 27.0283 27.0622 24.5002C28.8775 21.9721 29.8543 18.9384 29.8551 15.8261C29.8551 7.61865 23.2075 0.971008 15 0.971008Z" fill="white"/>
</svg>
