<svg width="34" height="34" viewBox="0 0 34 34" fill="none" xmlns="http://www.w3.org/2000/svg">
<path d="M17 0.333496C26.2 0.333496 33.6666 7.80016 33.6666 17.0002C33.6666 26.2002 26.2 33.6668 17 33.6668C7.79998 33.6668 0.333313 26.2002 0.333313 17.0002C0.333313 7.80016 7.79998 0.333496 17 0.333496ZM17 3.66683C9.63331 3.66683 3.66665 9.6335 3.66665 17.0002C3.66665 24.3668 9.63331 30.3335 17 30.3335C24.3666 30.3335 30.3333 24.3668 30.3333 17.0002C30.3333 9.6335 24.3666 3.66683 17 3.66683ZM17 8.66683C20.0333 8.66683 22.6883 10.2885 24.1466 12.7135L21.29 14.4285C20.8404 13.6789 20.2022 13.0603 19.439 12.6342C18.6757 12.2082 17.8142 11.9897 16.9402 12.0005C16.0662 12.0114 15.2103 12.2511 14.4578 12.6959C13.7054 13.1406 13.0826 13.7749 12.6518 14.5354C12.2209 15.2959 11.9969 16.156 12.0021 17.0301C12.0073 17.9041 12.2416 18.7615 12.6816 19.5168C13.1215 20.2721 13.7518 20.8989 14.5095 21.3346C15.2672 21.7703 16.1259 21.9998 17 22.0002C17.8635 22.0007 18.7125 21.7775 19.4641 21.3522C20.2156 20.9269 20.8441 20.3141 21.2883 19.5735L24.1466 21.2868C23.21 22.8512 21.7861 24.0651 20.0932 24.7424C18.4003 25.4197 16.532 25.523 14.7748 25.0364C13.0176 24.5498 11.4685 23.5002 10.3652 22.0486C9.26187 20.597 8.66518 18.8235 8.66665 17.0002C8.66665 12.4002 12.4 8.66683 17 8.66683Z" fill="white"/>
</svg>
