<svg width="37" height="37" viewBox="0 0 37 37" fill="none" xmlns="http://www.w3.org/2000/svg">
<path d="M5.10418 0.814491C6.49384 0.318625 8.00124 0.25601 9.42723 0.634918C10.8532 1.01383 12.1307 1.81643 13.091 2.93669C14.0512 4.05696 14.649 5.44218 14.8053 6.90935C14.9617 8.37652 14.6693 9.8566 13.9667 11.1541L36.2771 33.4666L33.3313 36.4124L11.0188 14.0999C9.721 14.7997 8.24167 15.0899 6.77571 14.9322C5.30975 14.7745 3.92596 14.1764 2.80671 13.2166C1.68745 12.2568 0.885258 10.9804 0.50584 9.55568C0.126421 8.13092 0.187583 6.62463 0.681266 5.23532L5.34168 9.89574C5.62995 10.1942 5.97478 10.4323 6.35604 10.5961C6.73731 10.7598 7.14737 10.846 7.5623 10.8496C7.97724 10.8533 8.38874 10.7742 8.77279 10.6171C9.15684 10.4599 9.50575 10.2279 9.79917 9.93448C10.0926 9.64106 10.3246 9.29215 10.4817 8.9081C10.6389 8.52405 10.7179 8.11255 10.7143 7.69761C10.7107 7.28268 10.6245 6.87261 10.4607 6.49135C10.297 6.11009 10.0589 5.76526 9.76043 5.47699L5.1021 0.812408L5.10418 0.814491ZM26.7021 4.73949L33.3313 1.05616L36.2771 4.00199L32.5938 10.6312L28.9104 11.3687L24.4938 15.7874L21.5458 12.8416L25.9646 8.42282L26.7021 4.73949ZM12.7063 21.6812L15.6521 24.627L4.60418 35.6749C4.22856 36.0516 3.72306 36.2703 3.19133 36.2862C2.6596 36.3022 2.14192 36.1141 1.74442 35.7605C1.34693 35.407 1.09973 34.9148 1.05351 34.3849C1.00729 33.8549 1.16556 33.3273 1.49585 32.9103L1.65835 32.7291L12.7063 21.6812Z" fill="#004A41"/>
</svg>
