<svg width="42" height="38" viewBox="0 0 42 38" fill="none" xmlns="http://www.w3.org/2000/svg">
<path d="M41.8333 14.8312V35.6667C41.8333 36.2192 41.6138 36.7491 41.2231 37.1398C40.8324 37.5305 40.3025 37.75 39.75 37.75H23.0833V14.8312H41.8333ZM18.9166 27.3312V37.75H2.24996C1.69743 37.75 1.16752 37.5305 0.77682 37.1398C0.386119 36.7491 0.166626 36.2192 0.166626 35.6667V27.3312H18.9166ZM18.9166 0.25V23.1646H0.166626V2.33333C0.166626 1.7808 0.386119 1.25089 0.77682 0.860194C1.16752 0.469493 1.69743 0.25 2.24996 0.25H18.9166ZM39.75 0.25C40.3025 0.25 40.8324 0.469493 41.2231 0.860194C41.6138 1.25089 41.8333 1.7808 41.8333 2.33333V10.6646H23.0833V0.25H39.75Z" fill="#004A41"/>
</svg>
