<svg width="31" height="25" viewBox="0 0 31 25" fill="none" xmlns="http://www.w3.org/2000/svg">
<path d="M29.3501 4.65281C30.029 7.29999 30.029 12.8261 30.029 12.8261C30.029 12.8261 30.029 18.3522 29.3501 20.9993C28.9728 22.4626 27.8691 23.6138 26.4712 24.003C23.9325 24.7101 15.1739 24.7101 15.1739 24.7101C15.1739 24.7101 6.41983 24.7101 3.87664 24.003C2.47283 23.6079 1.37059 22.4581 0.997724 20.9993C0.318848 18.3522 0.318848 12.8261 0.318848 12.8261C0.318848 12.8261 0.318848 7.29999 0.997724 4.65281C1.37504 3.18959 2.47878 2.03832 3.87664 1.64912C6.41983 0.942016 15.1739 0.942017 15.1739 0.942017C15.1739 0.942017 23.9325 0.942016 26.4712 1.64912C27.875 2.04426 28.9773 3.19405 29.3501 4.65281ZM12.2029 18.0253L21.1159 12.8261L12.2029 7.6268V18.0253Z" fill="white"/>
</svg>
